<?xml version="1.0" standalone="no"?>
<!DOCTYPE svg PUBLIC "-//W3C//DTD SVG 20010904//EN"
 "http://www.w3.org/TR/2001/REC-SVG-20010904/DTD/svg10.dtd">
<svg version="1.0" xmlns="http://www.w3.org/2000/svg"
 width="500.000000pt" height="500.000000pt" viewBox="0 0 500.000000 500.000000"
 preserveAspectRatio="xMidYMid meet">
<metadata>
Created by potrace 1.14, written by Peter Selinger 2001-2017
</metadata>
<g transform="translate(0.000000,500.000000) scale(0.100000,-0.100000)"
fill="#000000" stroke="none">
<path d="M2805 3807 c-16 -12 -25 -15 -20 -7 8 13 7 13 -9 0 -10 -8 -28 -16
-39 -17 -12 -2 -24 -8 -25 -13 -2 -6 -8 -8 -13 -4 -5 3 -9 -2 -9 -11 0 -9 5
-13 10 -10 6 3 10 -1 10 -10 0 -9 3 -14 8 -12 4 3 13 -1 20 -9 10 -11 10 -14
0 -14 -10 0 -10 -2 -1 -8 6 -4 10 -20 9 -35 -2 -15 2 -27 8 -27 7 0 7 -3 1 -8
-14 -10 -17 -32 -4 -32 5 0 7 -5 3 -12 -9 -15 -9 -132 0 -147 4 -6 3 -11 -3
-11 -10 0 -9 -25 2 -36 4 -4 -1 -13 -11 -21 -9 -8 -11 -12 -4 -8 10 5 12 -4 9
-39 -2 -26 1 -47 7 -50 7 -3 6 -5 -1 -5 -7 -1 -10 -7 -7 -15 3 -8 -4 -16 -18
-20 -14 -5 -18 -9 -10 -13 10 -4 10 -8 1 -19 -7 -8 -7 -14 -1 -14 12 0 10 -33
-3 -42 -6 -5 -5 -8 4 -8 11 0 11 -3 1 -15 -10 -12 -10 -15 0 -15 10 0 10 -4
-1 -16 -10 -13 -10 -17 0 -24 8 -5 9 -9 3 -11 -6 -2 -13 -16 -16 -31 -2 -15
-10 -34 -17 -41 -11 -12 -16 -12 -27 0 -7 7 -19 10 -25 6 -16 -11 -77 -12 -77
-1 0 4 -5 7 -11 5 -6 -1 -14 4 -17 12 -3 9 0 11 8 6 7 -4 4 4 -5 19 -17 25
-16 26 1 26 13 0 15 3 7 8 -13 8 -11 50 2 72 5 9 4 11 -3 6 -15 -9 -15 -1 -2
24 8 15 6 21 -7 29 -12 7 -13 10 -4 11 7 0 11 6 8 14 -3 8 2 16 12 19 15 4 18
13 16 51 -2 33 0 44 8 39 8 -4 8 -2 0 8 -11 14 -6 16 42 15 31 -1 55 3 55 9 0
5 5 3 10 -5 7 -11 10 -11 10 -2 0 7 3 11 8 8 14 -9 41 20 36 40 -4 16 -14 19
-52 19 -26 -1 -55 2 -64 7 -10 5 -19 4 -23 -2 -13 -21 -32 9 -30 44 2 22 -2
37 -11 40 -12 5 -12 2 -3 -17 11 -19 10 -20 -3 -10 -8 7 -19 9 -23 5 -5 -4 -5
-2 -1 5 4 8 -1 11 -14 10 -11 -1 -21 -5 -21 -9 -1 -4 -2 -12 -3 -18 -1 -13
-21 -13 -21 0 0 5 -6 15 -12 22 -10 10 -15 9 -25 -1 -11 -11 -10 -13 2 -7 8 4
2 -5 -15 -19 -16 -15 -23 -24 -15 -20 8 3 6 -1 -4 -9 -11 -9 -24 -16 -29 -16
-4 0 -6 -4 -3 -9 4 -5 -10 -5 -31 -1 -20 5 -41 7 -45 4 -4 -3 -14 -2 -20 2 -7
5 -27 7 -45 5 -30 -2 -33 0 -33 24 0 18 -4 24 -12 19 -8 -5 -7 0 2 11 14 17
13 18 -8 13 -12 -4 -20 -3 -17 2 2 4 -6 8 -20 8 -14 0 -22 -4 -20 -8 3 -4 -2
-11 -11 -14 -8 -3 -12 -11 -8 -17 4 -8 3 -9 -5 -5 -9 6 -9 11 0 22 10 12 9 13
-5 8 -9 -3 -16 -1 -16 5 0 6 -4 11 -10 11 -5 0 -10 -7 -10 -15 0 -7 -7 -18
-16 -23 -9 -5 -16 -13 -16 -18 0 -5 -4 -8 -9 -7 -5 2 -9 -4 -9 -12 0 -8 -9
-15 -19 -15 -11 0 -21 -5 -23 -10 -2 -6 -13 -12 -25 -12 -12 -1 -19 -7 -16
-15 3 -7 9 -10 14 -7 5 3 9 0 9 -7 0 -9 3 -9 14 0 11 9 16 9 22 0 5 -8 3 -10
-7 -5 -8 4 -7 1 3 -6 11 -9 16 -27 15 -56 -1 -23 3 -42 8 -42 6 0 1 -7 -9 -15
-10 -8 -22 -13 -25 -10 -4 2 -7 -5 -7 -16 0 -10 4 -19 9 -19 5 0 4 -6 -2 -14
-9 -11 -9 -16 0 -21 8 -6 7 -10 -2 -16 -11 -7 -11 -9 1 -9 13 0 13 -1 0 -10
-12 -8 -12 -10 -1 -10 9 0 10 -4 4 -12 -6 -7 -9 -30 -9 -50 1 -27 -3 -38 -13
-38 -13 0 -13 -2 0 -12 8 -7 12 -12 10 -11 -7 4 -31 -18 -31 -28 0 -5 5 -9 11
-9 5 0 7 5 4 10 -3 6 -1 10 4 10 10 0 12 -5 11 -25 -1 -10 24 -30 53 -43 19
-8 26 -8 21 -1 -4 8 -1 8 12 1 29 -15 164 -8 175 9 5 8 9 10 9 6 0 -4 10 -2
23 5 12 7 25 11 30 10 4 -1 7 5 7 13 0 8 6 12 13 9 8 -3 13 4 14 18 2 18 0 20
-7 8 -8 -12 -12 -13 -19 -2 -7 11 -9 11 -14 -2 -5 -11 -13 -13 -34 -7 -15 4
-34 6 -40 4 -20 -7 -40 20 -41 55 0 22 3 30 11 26 7 -3 4 1 -5 8 -10 9 -14 19
-8 28 4 7 6 19 3 27 -3 7 0 13 7 13 10 0 9 4 -1 16 -10 13 -10 17 2 25 8 5 9
9 3 9 -14 0 -14 30 0 30 6 0 4 5 -4 10 -13 8 -12 10 3 10 16 0 22 12 18 34 -1
4 3 14 9 21 8 10 8 15 -1 21 -8 5 -9 3 -4 -6 5 -9 4 -11 -4 -6 -9 6 -9 11 -1
21 7 8 9 18 6 23 -3 5 37 9 88 10 l93 1 1 -59 c0 -43 -4 -60 -13 -60 -7 0 -15
-11 -17 -25 -3 -14 -1 -25 5 -25 5 0 4 -7 -3 -15 -10 -12 -10 -15 0 -15 8 0
10 -7 5 -17 -4 -10 -8 -42 -11 -72 -2 -29 -6 -56 -9 -59 -2 -3 0 -11 6 -19 8
-8 8 -13 1 -13 -6 0 -4 -12 4 -30 9 -16 18 -30 20 -30 3 0 2 6 -2 13 -5 8 -3
8 9 -2 9 -7 15 -16 13 -20 -2 -3 41 -5 97 -4 118 3 127 4 127 13 0 4 11 6 25
5 14 -2 28 1 31 6 4 6 10 6 17 0 7 -5 62 -8 124 -7 76 1 110 -1 106 -8 -4 -6
3 -2 15 8 15 13 22 15 22 6 0 -10 3 -10 14 -1 11 9 15 9 19 -1 4 -10 6 -10 6
1 1 11 4 11 18 0 15 -12 16 -12 8 1 -7 12 -6 13 6 4 8 -7 46 -11 92 -10 45 0
77 -3 77 -9 0 -6 3 -6 8 0 4 6 18 10 32 10 14 -1 31 4 39 9 9 7 12 7 9 1 -3
-5 4 -10 17 -10 15 0 21 5 17 14 -4 10 -1 12 8 6 9 -5 11 -4 6 4 -4 6 -12 9
-17 6 -5 -4 -9 -1 -9 5 0 7 -7 9 -15 6 -10 -3 -18 1 -22 12 -4 9 -11 20 -17
25 -8 5 -7 10 3 16 7 5 11 13 8 18 -3 5 -2 15 3 23 5 8 4 22 -2 33 -7 14 -7
17 1 12 8 -4 10 3 6 24 -3 16 0 33 5 36 7 4 7 12 2 18 -14 20 -12 57 4 57 8 0
14 3 15 8 0 4 2 16 4 27 2 11 -1 23 -8 27 -9 6 -8 8 3 8 12 0 12 2 2 8 -7 5
-14 23 -15 40 -1 18 -6 31 -12 29 -10 -4 -46 28 -44 39 0 3 -3 9 -7 12 -4 4
-4 1 0 -5 4 -7 2 -13 -3 -13 -6 0 -11 5 -11 10 0 6 -10 10 -23 10 -13 0 -29 6
-36 13 -8 6 -11 7 -8 1 4 -7 -15 -10 -59 -9 -35 1 -66 -1 -69 -5 -2 -4 -14 -6
-27 -5 -22 2 -23 5 -24 93 -1 64 2 89 10 85 8 -5 8 -3 0 8 -6 8 -10 52 -9 104
2 99 -1 118 -19 108 -18 -12 -98 -15 -91 -3 9 14 4 12 -30 -13z m250 -471 c8
-7 15 -22 17 -32 2 -10 8 -22 13 -26 6 -5 4 -8 -5 -8 -13 0 -13 -1 0 -10 13
-9 11 -13 -10 -30 -16 -12 -20 -20 -10 -20 10 0 11 -3 3 -11 -7 -7 -8 -21 -3
-39 5 -16 5 -31 2 -34 -3 -4 -7 -29 -9 -57 -1 -28 -8 -58 -14 -65 -6 -8 -8
-14 -5 -14 4 0 1 -6 -6 -14 -7 -8 -15 -14 -18 -14 -3 0 -8 -1 -12 -2 -19 -6
-68 -4 -68 3 0 4 -6 7 -13 7 -9 0 -14 12 -15 30 0 17 2 28 6 26 4 -2 6 20 5
50 -1 40 2 52 10 47 7 -4 6 0 -2 10 -9 11 -10 17 -2 17 6 0 11 5 11 11 0 5 -3
8 -7 6 -5 -3 -9 8 -10 25 -2 22 3 31 17 35 15 4 18 12 15 40 -6 67 67 113 110
69z"/>
<path d="M394 3759 c-3 -6 -12 -8 -20 -5 -7 3 -16 0 -20 -6 -5 -7 -8 -7 -13 1
-4 6 -12 2 -20 -10 -7 -12 -8 -18 -2 -14 6 3 11 1 11 -4 0 -6 11 -11 25 -11
14 0 25 -5 25 -11 0 -5 5 -7 10 -4 6 3 10 1 10 -5 0 -6 5 -8 12 -4 6 4 8 3 4
-4 -3 -6 -2 -14 4 -17 8 -5 7 -11 -1 -21 -9 -11 -9 -14 0 -14 9 0 9 -5 1 -20
-6 -11 -7 -20 -3 -20 4 0 8 -11 8 -24 0 -13 -3 -22 -7 -19 -10 6 -10 -1 2 -32
9 -23 8 -26 -5 -21 -10 3 -13 2 -10 -4 4 -6 8 -24 10 -41 3 -21 1 -28 -8 -22
-7 4 -6 -1 2 -11 9 -10 11 -20 5 -24 -8 -6 -10 -39 -4 -67 1 -5 1 -14 0 -20
-1 -5 -4 -21 -5 -35 -2 -14 -3 -28 -4 -32 -1 -5 -8 -8 -17 -8 -9 0 -14 -7 -12
-17 1 -10 -1 -24 -5 -30 -5 -7 -4 -13 2 -13 6 0 8 -7 5 -15 -4 -8 -11 -12 -18
-8 -6 4 -4 -2 4 -12 12 -14 12 -19 2 -23 -10 -3 -10 -7 -1 -18 8 -10 8 -14 1
-14 -6 0 -9 -7 -6 -15 4 -9 0 -15 -7 -15 -12 0 -12 -2 -1 -9 11 -7 10 -9 -3
-15 -9 -3 -13 -10 -10 -16 3 -5 1 -10 -4 -10 -6 0 -10 -6 -9 -12 2 -7 -5 -12
-14 -12 -10 1 -18 -2 -18 -6 0 -8 -48 -25 -62 -22 -3 1 -9 -5 -12 -14 -3 -8
-2 -12 4 -9 6 3 10 0 10 -7 0 -9 3 -9 10 2 8 12 10 12 10 1 0 -11 3 -11 15 -1
12 10 15 10 15 0 0 -8 3 -10 7 -7 3 4 13 1 21 -6 9 -6 13 -7 10 -2 -4 7 24 10
84 8 50 -1 100 3 111 9 11 6 17 6 13 0 -3 -5 9 -9 29 -8 22 1 35 6 35 14 0 7
4 11 8 8 5 -3 9 1 9 7 0 7 -9 14 -19 14 -10 1 -16 -3 -12 -9 4 -5 -5 -3 -18 6
-14 9 -28 13 -33 9 -4 -5 -5 -2 -1 5 4 6 3 12 -3 12 -11 0 -12 78 -1 85 4 2 6
28 4 57 -2 39 -1 49 7 38 9 -12 10 -11 4 5 -16 46 -14 56 12 66 22 8 23 11 12
26 -16 19 -16 23 3 34 7 5 8 9 2 9 -17 0 -9 45 9 48 9 2 17 -2 17 -8 0 -6 -4
-8 -10 -5 -16 10 -12 0 10 -25 11 -13 20 -29 20 -37 0 -8 4 -12 9 -9 15 10 7
-28 -9 -41 -12 -10 -12 -12 -1 -13 8 0 11 -6 7 -16 -3 -8 -2 -12 4 -9 9 6 14
-8 11 -27 0 -5 3 -8 9 -8 5 0 10 -7 10 -15 0 -8 5 -15 10 -15 7 0 7 -6 0 -20
-8 -16 -6 -21 12 -31 15 -8 18 -14 10 -17 -10 -3 -8 -8 5 -19 10 -8 11 -11 3
-7 -12 6 -13 5 -4 -7 6 -8 10 -24 9 -36 -1 -12 1 -20 5 -18 4 2 7 -9 8 -26 1
-43 7 -45 36 -14 24 26 25 26 21 5 -2 -13 -2 -20 2 -16 3 3 13 0 21 -7 13 -9
14 -9 8 1 -4 6 -2 12 3 12 6 0 11 -4 11 -8 0 -5 6 -9 14 -9 8 0 12 6 9 14 -3
7 2 13 11 13 14 0 20 12 17 32 0 5 3 7 8 5 5 -1 9 1 10 6 1 14 26 35 35 29 5
-3 6 0 2 7 -9 15 21 64 34 56 6 -3 7 1 4 9 -3 9 1 23 10 31 9 9 16 25 16 36 0
11 4 18 9 15 5 -4 12 8 16 25 4 19 18 38 38 50 18 10 29 19 24 19 -4 0 -1 10
8 23 8 13 12 27 8 32 -5 4 -2 5 5 1 11 -6 17 5 13 27 0 4 3 7 9 7 6 0 9 3 8 8
-2 4 1 8 6 10 8 2 9 -18 7 -103 -1 -15 -7 -25 -15 -25 -8 0 -18 -5 -22 -12 -4
-7 -3 -8 4 -4 7 4 12 3 12 -3 0 -5 -5 -13 -10 -16 -7 -4 -7 -12 -2 -18 13 -18
12 -57 -1 -57 -8 0 -8 -3 1 -8 9 -7 10 -15 3 -35 -8 -19 -7 -27 0 -27 8 0 8
-4 0 -13 -6 -8 -8 -17 -4 -20 3 -4 1 -7 -5 -7 -7 0 -12 -6 -12 -14 0 -7 -11
-21 -25 -30 -17 -11 -25 -13 -25 -4 0 6 -7 3 -16 -8 -8 -10 -13 -13 -9 -6 3 6
1 12 -4 12 -6 0 -11 -5 -11 -11 0 -5 -4 -7 -10 -4 -5 3 -10 1 -10 -4 0 -6 5
-11 11 -11 5 0 8 -4 5 -9 -8 -12 27 -8 36 4 5 6 8 6 8 -1 0 -8 36 -11 115 -10
71 1 115 -3 115 -9 0 -6 3 -6 8 1 4 5 24 10 45 9 20 -1 37 3 37 8 0 5 6 4 14
-2 11 -9 15 -9 18 0 2 7 10 9 17 5 7 -5 10 -15 6 -24 -5 -13 -2 -12 14 2 17
16 22 16 26 4 4 -11 23 -14 83 -11 95 3 102 4 102 15 0 4 5 8 11 8 5 0 8 -4 5
-9 -3 -4 6 -6 19 -3 14 2 25 0 25 -4 0 -5 34 -9 75 -9 41 0 75 3 75 7 0 5 11
8 25 8 14 0 25 5 25 10 0 6 9 10 20 10 18 0 19 2 8 20 -9 15 -24 20 -53 20
-22 0 -35 4 -30 8 13 9 15 52 2 52 -5 0 -3 8 4 17 12 15 12 16 -1 8 -12 -7
-13 -6 -3 7 7 8 10 18 6 21 -3 4 -1 7 5 7 7 0 12 5 12 11 0 5 -5 7 -10 4 -5
-3 -10 -1 -10 4 0 6 3 11 8 11 4 0 7 11 7 25 0 14 -4 25 -10 25 -5 0 -4 4 3 9
17 10 17 21 2 31 -9 5 -6 10 9 15 12 3 19 11 16 16 -4 5 -2 9 3 9 11 0 12 32
0 47 -6 7 -5 14 2 18 8 5 8 11 0 20 -7 8 -9 19 -5 25 3 5 0 10 -7 10 -7 0 -18
10 -23 23 -6 12 -14 20 -19 19 -5 -2 -12 1 -15 6 -3 6 -26 12 -51 14 -25 2
-48 8 -52 13 -5 6 -8 6 -8 -1 0 -6 -17 -10 -40 -9 -23 1 -43 -2 -46 -7 -3 -5
-9 -6 -14 -3 -5 3 -11 1 -15 -5 -4 -6 -11 -8 -16 -5 -5 4 -9 1 -9 -5 0 -6 -4
-8 -10 -5 -5 3 -10 0 -10 -7 0 -9 -3 -9 -10 2 -8 13 -10 12 -10 -3 0 -10 -4
-15 -10 -12 -5 3 -10 1 -10 -5 0 -6 -4 -8 -10 -5 -5 3 -10 -2 -10 -12 0 -15
-2 -16 -10 -3 -6 9 -10 10 -10 3 0 -7 -10 -21 -22 -33 -12 -11 -18 -20 -14
-20 5 0 1 -11 -8 -24 -15 -23 -15 -25 4 -21 11 2 22 0 25 -6 4 -5 11 -9 16 -9
6 0 8 4 5 8 -3 5 1 9 9 9 8 0 15 -3 15 -7 0 -4 20 -6 44 -6 24 1 42 4 39 9 -2
4 3 7 12 7 9 0 19 9 22 20 3 11 9 18 13 15 5 -3 6 3 4 12 -3 10 1 25 8 35 12
15 15 14 38 -9 14 -14 19 -23 13 -19 -7 4 -13 2 -13 -3 0 -6 5 -11 10 -11 6 0
10 -18 10 -40 0 -29 -4 -40 -15 -40 -8 0 -15 -7 -15 -16 0 -25 -27 -46 -50
-39 -14 4 -20 2 -18 -7 2 -8 -7 -13 -24 -12 -15 0 -25 -3 -22 -8 4 -6 -65 -31
-91 -33 -5 0 -14 -6 -18 -12 -4 -7 -15 -13 -22 -13 -8 0 -15 -7 -15 -16 0 -8
-5 -12 -11 -9 -6 4 -9 0 -7 -11 2 -11 -2 -18 -10 -16 -9 2 -10 -3 -4 -15 5
-10 6 -29 1 -43 -4 -14 -8 -20 -8 -15 -1 6 -6 3 -11 -5 -7 -12 -10 -12 -10 -1
0 7 -6 11 -13 8 -7 -3 -19 5 -27 16 -12 20 -12 21 4 8 15 -12 16 -12 9 5 -3
10 -11 22 -17 26 -7 5 -6 8 3 8 7 0 11 6 7 15 -3 10 1 15 11 15 14 0 14 2 -3
15 -10 8 -13 15 -7 15 9 0 10 7 3 26 -7 16 -7 23 0 19 6 -3 10 -1 10 4 0 6 -3
11 -7 11 -5 0 -8 16 -7 35 1 23 9 42 24 55 13 11 17 20 10 20 -6 0 -10 6 -7
14 3 7 0 19 -6 26 -10 10 -8 12 7 6 15 -5 17 -4 7 8 -6 7 -11 36 -10 63 1 28
-1 55 -5 61 -4 7 -4 12 1 12 9 0 9 108 0 117 -4 3 -2 14 4 24 7 13 6 19 -1 19
-7 0 -8 6 -1 18 6 11 6 24 -1 36 -8 14 -7 17 1 12 6 -4 14 -1 17 7 3 9 16 18
29 21 13 3 31 9 41 13 13 5 15 3 9 -8 -6 -11 -5 -11 5 -3 7 7 9 21 5 34 -6 18
-9 20 -16 9 -7 -11 -9 -11 -9 -1 0 7 -5 10 -11 6 -6 -3 -15 0 -20 7 -6 9 -9
10 -9 2 0 -11 -7 -11 -45 -3 -5 1 -13 1 -17 0 -19 -5 -76 -3 -92 3 -11 5 -15
3 -10 -5 5 -7 -1 -9 -20 -6 -14 3 -29 1 -32 -4 -3 -4 -10 -5 -16 -2 -7 4 -8 2
-4 -4 4 -7 2 -12 -5 -12 -7 0 -9 -3 -6 -7 4 -3 2 -12 -4 -20 -9 -10 -8 -13 2
-13 9 -1 8 -5 -5 -15 -11 -8 -16 -15 -12 -15 5 0 3 -7 -4 -15 -6 -8 -9 -18 -6
-23 3 -4 -4 -15 -15 -22 -21 -16 -26 -35 -6 -25 6 4 4 0 -7 -9 -10 -8 -15 -19
-12 -24 3 -6 -1 -13 -10 -16 -8 -3 -12 -10 -9 -16 3 -5 2 -10 -4 -10 -5 0 -8
-9 -6 -20 2 -11 -1 -19 -8 -17 -7 1 -11 -4 -9 -10 1 -7 -3 -13 -9 -13 -5 0 -7
-4 -4 -10 3 -5 1 -10 -5 -10 -6 0 -9 -4 -5 -9 3 -5 -1 -16 -9 -24 -8 -8 -12
-18 -8 -22 4 -3 -1 -13 -11 -20 -10 -7 -19 -17 -19 -22 -2 -23 -21 -62 -28
-58 -4 3 -7 -3 -6 -13 1 -11 -7 -18 -22 -20 -16 -3 -22 -8 -18 -18 3 -8 2 -12
-3 -9 -5 3 -11 -2 -13 -12 -2 -13 -6 -10 -15 10 -11 23 -10 27 2 27 18 0 19
12 3 28 -7 7 -14 17 -14 22 -1 6 -2 15 -3 21 0 5 -5 7 -11 4 -6 -3 -7 1 -4 9
4 9 1 16 -6 16 -7 0 -10 7 -6 15 3 8 -2 18 -10 23 -8 5 -16 18 -17 30 -1 12
-5 22 -9 22 -4 0 -8 7 -8 15 0 8 -4 15 -10 15 -5 0 -10 9 -10 20 0 11 -5 20
-11 20 -5 0 -7 5 -4 10 3 6 1 10 -5 10 -7 0 -9 8 -5 20 4 14 2 20 -7 18 -7 -2
-13 4 -13 12 0 8 -6 21 -13 29 -7 7 -11 18 -9 25 2 6 -3 17 -12 24 -12 10 -13
12 -1 6 13 -7 13 -5 1 9 -7 9 -10 17 -7 17 4 0 0 7 -9 16 -12 12 -13 19 -5 24
9 6 9 9 1 14 -6 4 -9 11 -6 16 3 5 1 11 -5 15 -5 3 -10 1 -10 -5 0 -7 -6 -8
-18 -1 -10 5 -37 8 -60 7 -23 -2 -42 1 -42 5 0 5 -10 5 -22 0 -13 -5 -33 -5
-45 0 -14 5 -25 4 -29 -2z m79 -234 c4 -8 3 -16 -1 -19 -4 -3 -9 4 -9 15 -2
23 3 25 10 4z m2 -54 c-3 -6 -11 -11 -16 -11 -5 0 -4 6 3 14 14 16 24 13 13
-3z m0 -40 c-3 -6 -11 -11 -16 -11 -5 0 -4 6 3 14 14 16 24 13 13 -3z m-5 -56
c-4 -19 -4 -36 1 -39 5 -2 4 -3 -3 -2 -16 3 -10 76 7 76 1 0 -1 -16 -5 -35z
m-2 -140 c-3 -3 -9 2 -12 12 -6 14 -5 15 5 6 7 -7 10 -15 7 -18z m1188 -145
c0 -11 -3 -20 -7 -20 -3 0 -5 -11 -4 -25 2 -14 -1 -25 -6 -25 -5 0 -9 -6 -9
-13 0 -18 -46 -40 -48 -24 0 7 -3 22 -6 34 -2 13 0 25 5 28 5 4 7 11 4 16 -4
5 0 9 8 9 8 0 18 7 21 16 3 8 10 13 15 9 5 -3 12 -1 16 5 9 14 11 13 11 -10z"/>
<path d="M3626 3443 c-7 -7 -27 -10 -84 -14 -18 -1 -37 -9 -42 -18 -8 -14 -9
-14 -10 -1 0 12 -3 12 -11 -2 -5 -10 -16 -15 -25 -11 -9 3 -14 0 -12 -8 2 -8
-3 -13 -9 -11 -7 1 -13 -5 -13 -13 0 -8 -9 -20 -20 -27 -11 -7 -20 -18 -20
-25 0 -7 -5 -13 -11 -13 -5 0 -7 -4 -4 -10 3 -5 1 -10 -5 -10 -6 0 -8 -4 -5
-10 3 -5 0 -10 -7 -10 -10 0 -9 -3 1 -9 12 -8 9 -11 -12 -16 -15 -4 -24 -11
-21 -16 3 -5 1 -9 -4 -9 -6 0 -8 -17 -6 -37 2 -21 4 -57 5 -81 1 -24 6 -45 11
-48 5 -3 4 -12 -2 -19 -8 -10 -4 -20 17 -41 15 -15 19 -21 8 -13 -18 13 -19
13 -6 -3 7 -10 20 -18 28 -18 8 0 11 -4 8 -10 -3 -5 1 -10 9 -10 9 0 16 -8 16
-17 0 -14 2 -15 9 -4 6 9 11 10 15 2 4 -6 12 -9 17 -6 5 4 9 1 9 -6 0 -8 4 -8
15 1 8 7 15 8 15 3 0 -14 134 -9 193 7 26 7 47 16 47 21 0 5 6 8 13 7 6 -2 11
3 9 10 -1 8 2 11 9 6 7 -4 23 6 39 24 15 17 31 28 36 24 4 -4 3 0 -4 9 -15 20
-71 23 -78 4 -3 -7 -15 -15 -27 -19 -21 -5 -21 -5 -3 9 14 11 16 15 5 15 -12
0 -12 2 1 10 8 5 10 10 4 10 -6 0 -24 -11 -39 -24 -16 -14 -32 -23 -36 -20 -4
2 -9 0 -11 -6 -2 -6 -14 -4 -31 5 -15 8 -25 10 -21 4 3 -6 -3 -5 -15 2 -12 8
-16 16 -10 20 6 3 1 9 -11 12 -15 4 -21 11 -17 21 3 8 -1 17 -9 20 -9 3 -13
10 -9 15 3 5 1 13 -5 16 -8 5 -7 12 2 23 8 10 9 13 1 9 -16 -10 -24 5 -13 23
6 10 4 20 -6 31 -14 16 -14 18 6 29 12 6 28 9 36 6 8 -3 14 -2 14 2 0 4 67 7
150 7 82 -1 147 1 145 4 -3 2 3 10 13 17 14 11 14 13 2 14 -13 0 -13 1 0 10
12 7 12 12 2 22 -6 6 -12 16 -12 22 0 5 9 -1 20 -14 11 -12 17 -27 14 -31 -3
-5 0 -9 7 -9 8 0 7 -5 -2 -17 -10 -11 -10 -14 -1 -9 18 11 15 -5 -5 -21 -10
-8 -12 -12 -5 -8 11 5 17 -12 13 -37 0 -5 4 -8 9 -8 6 0 10 -8 10 -17 0 -9 8
-25 18 -36 9 -11 11 -17 5 -13 -7 4 -13 2 -13 -3 0 -6 5 -11 11 -11 6 0 9 -6
6 -14 -3 -7 -2 -17 3 -22 5 -5 11 -23 13 -41 3 -17 8 -37 13 -44 4 -8 3 -10
-4 -5 -7 4 -12 3 -12 -2 0 -6 6 -12 14 -15 9 -4 12 -14 9 -26 -3 -12 -1 -21 3
-21 15 1 44 27 37 33 -3 4 -1 7 6 7 7 0 11 -7 8 -15 -4 -8 -2 -17 3 -20 4 -3
11 1 13 7 4 10 6 10 6 1 1 -7 6 -13 12 -13 5 0 7 6 3 13 -5 8 -2 8 9 -2 12 -9
17 -10 17 -2 0 7 5 9 10 6 6 -3 10 1 10 9 0 9 5 16 10 16 6 0 10 7 10 15 0 8
5 15 11 15 5 0 8 4 5 9 -3 5 1 12 10 15 8 3 12 10 9 16 -3 6 1 13 10 16 9 4
14 13 11 20 -3 8 -1 14 5 14 6 0 7 5 3 12 -5 7 -2 9 7 6 11 -4 15 1 13 21 -1
16 3 28 10 28 7 0 13 -6 13 -13 0 -7 -5 -11 -11 -8 -6 3 -3 -1 6 -9 10 -8 19
-26 20 -41 1 -14 5 -26 9 -26 6 0 10 -37 11 -92 0 -23 5 -28 25 -28 13 0 21 4
18 10 -3 6 4 10 16 10 17 0 19 -3 10 -13 -8 -11 -7 -13 7 -12 9 0 24 5 31 10
11 6 13 4 8 -11 -7 -18 -6 -18 8 1 9 11 19 20 23 20 4 0 6 6 6 12 -1 7 1 11 5
9 9 -5 31 21 24 28 -4 3 -1 6 5 6 7 0 11 3 10 8 -3 14 14 42 23 36 5 -3 9 -2
8 3 -4 22 2 34 14 27 9 -6 9 -4 -1 8 -10 13 -10 17 4 22 8 3 14 12 12 18 -3 7
5 21 16 31 12 10 15 16 9 12 -8 -4 -13 0 -13 10 0 9 4 14 9 11 5 -4 12 8 16
25 4 18 15 33 26 36 10 3 21 14 24 24 4 11 11 17 16 13 5 -3 8 -2 7 3 -4 15
21 73 32 73 6 0 9 4 5 9 -3 5 5 13 17 17 66 20 57 53 -13 49 -27 -2 -49 1 -49
6 0 5 -10 5 -23 0 -14 -5 -30 -5 -40 0 -11 7 -17 6 -17 -1 0 -6 -11 -8 -23 -6
-13 2 -30 0 -38 -4 -8 -5 -19 -4 -26 2 -7 6 -13 6 -13 1 0 -4 -18 -7 -40 -5
-22 2 -38 7 -35 11 2 4 -2 8 -10 8 -8 0 -15 -4 -15 -8 0 -4 -9 -7 -20 -6 -11
1 -20 5 -20 10 0 4 -4 6 -10 2 -16 -10 -109 -12 -103 -2 3 5 -5 4 -17 -3 -13
-7 -36 -9 -57 -5 -20 4 -33 2 -29 -3 3 -5 -6 -7 -19 -4 -14 2 -23 8 -20 11 2
4 -2 8 -10 8 -8 0 -15 -4 -15 -8 0 -4 -9 -7 -20 -6 -11 1 -20 5 -20 10 0 4 -5
5 -10 2 -16 -10 -94 -10 -109 0 -10 6 -12 4 -6 -5 6 -10 4 -12 -10 -6 -11 4
-22 2 -27 -6 -6 -10 -8 -10 -8 1 0 11 -3 11 -15 1 -10 -9 -15 -9 -15 -1 0 6
-5 11 -11 11 -5 0 -7 -6 -3 -12 4 -7 -1 -5 -12 4 -11 9 -40 18 -64 20 -25 2
-50 7 -56 11 -6 3 -14 3 -18 0z m807 -66 c-4 -7 0 -6 10 2 9 7 17 9 17 3 0 -5
9 -12 21 -15 17 -5 19 -10 13 -29 -4 -13 -7 -29 -7 -35 0 -7 -4 -13 -9 -13 -5
0 -7 -4 -3 -9 3 -5 -1 -16 -9 -24 -8 -8 -12 -17 -9 -21 4 -3 -3 -6 -15 -6 -12
0 -21 -3 -21 -7 6 -36 -25 -47 -34 -13 -3 14 0 20 10 20 13 0 13 2 2 17 -12
14 -12 16 1 9 12 -6 11 -4 -1 6 -9 7 -14 19 -11 27 2 8 0 11 -5 8 -6 -4 -10 1
-10 11 0 36 -3 43 -15 36 -10 -5 -10 -4 -1 6 7 7 20 14 30 15 27 2 44 15 37
27 -4 7 -2 8 5 4 6 -4 8 -13 4 -19z m-270 -27 c13 -13 16 -26 12 -49 -7 -40
-26 -71 -42 -71 -7 0 -13 -5 -13 -11 0 -5 -6 -7 -12 -3 -9 5 -9 2 1 -9 12 -15
11 -17 -3 -17 -9 0 -16 2 -16 4 0 2 -3 11 -6 20 -4 11 -1 16 11 16 14 0 15 3
5 15 -7 8 -9 15 -5 15 5 0 0 10 -11 22 -10 12 -13 18 -5 13 9 -5 8 0 -3 17
-37 57 33 87 87 38z m-510 -1 c8 -11 12 -29 10 -40 -5 -18 -13 -20 -59 -17
-30 1 -54 -1 -54 -5 0 -5 -4 -5 -10 -2 -12 7 29 73 50 79 33 9 50 5 63 -15z
m877 -103 c0 -3 -4 -8 -10 -11 -5 -3 -10 -1 -10 4 0 6 5 11 10 11 6 0 10 -2
10 -4z m-360 -52 c-6 -6 -7 -14 -3 -17 3 -4 1 -7 -6 -7 -7 0 -10 -4 -7 -8 3
-5 -1 -9 -9 -9 -11 0 -12 4 -4 13 5 6 9 16 8 20 -1 5 1 17 6 27 6 14 10 16 16
6 4 -7 4 -18 -1 -25z m304 -13 c3 -5 -2 -15 -12 -22 -15 -13 -16 -12 -4 3 10
13 10 17 0 21 -9 4 -9 6 -1 6 6 1 14 -3 17 -8z m-330 -56 c-4 -8 -11 -12 -16
-9 -6 4 -5 10 3 15 19 12 19 11 13 -6z m313 9 c-3 -3 -12 -4 -19 -1 -8 3 -5 6
6 6 11 1 17 -2 13 -5z"/>
<path d="M1356 2264 c4 -10 4 -16 -1 -12 -4 4 -14 3 -22 -4 -10 -8 -12 -8 -8
3 9 23 -34 21 -48 -2 -6 -10 -17 -19 -24 -19 -11 0 -18 -20 -14 -42 0 -5 -3
-8 -9 -8 -5 0 -7 -6 -4 -14 3 -8 0 -17 -5 -21 -6 -3 -9 -11 -6 -16 4 -5 2 -9
-3 -9 -8 0 -10 -6 -14 -49 -1 -11 -5 -18 -9 -15 -4 2 -10 -12 -13 -31 -4 -19
-12 -35 -19 -35 -8 0 -8 -3 1 -9 11 -7 10 -9 -3 -15 -9 -3 -14 -10 -11 -15 8
-13 -4 -42 -15 -36 -4 3 -6 -4 -4 -15 2 -11 -2 -20 -8 -20 -7 0 -6 -4 3 -10
12 -8 12 -10 -2 -15 -10 -4 -15 -15 -13 -26 2 -11 0 -17 -6 -14 -9 6 -12 -3
-12 -37 0 -10 -3 -18 -7 -18 -8 0 -25 -49 -22 -62 1 -5 -3 -8 -9 -8 -6 0 -9
-7 -5 -15 3 -8 1 -15 -4 -15 -6 0 -10 -4 -10 -10 0 -5 8 -10 17 -10 15 0 14
-2 -3 -16 -10 -8 -14 -13 -8 -10 7 3 15 -1 18 -10 3 -8 2 -13 -3 -10 -5 3 -11
-1 -14 -8 -3 -8 -1 -17 6 -20 9 -3 9 -7 -1 -14 -8 -5 -13 -12 -13 -16 5 -38
-2 -57 -26 -69 -16 -8 -39 -13 -53 -11 -14 1 -19 0 -12 -3 9 -4 10 -8 2 -18
-9 -10 -4 -13 20 -11 16 1 30 -1 30 -4 0 -4 67 -7 149 -6 132 0 150 2 160 18
6 10 8 18 4 17 -22 -4 -33 2 -27 14 5 9 4 9 -6 0 -17 -15 -61 4 -59 26 1 9 0
18 -1 21 -7 18 -4 80 5 80 5 0 3 5 -5 10 -11 7 -11 10 -2 10 9 0 10 5 3 18
-11 20 -10 72 2 72 5 0 6 4 2 9 -8 14 28 22 92 21 70 -2 95 -8 88 -21 -4 -5
-1 -9 5 -9 7 0 10 -7 6 -15 -3 -8 -1 -15 5 -15 6 0 7 -5 4 -10 -3 -6 5 -14 19
-20 16 -6 26 -17 26 -30 0 -11 5 -20 11 -20 5 0 8 -4 5 -9 -3 -5 1 -12 10 -15
8 -3 12 -10 9 -16 -3 -5 -1 -10 4 -10 6 0 11 -7 11 -16 0 -8 4 -13 8 -10 4 2
9 -8 10 -24 1 -16 -3 -32 -9 -36 -8 -5 -9 -3 -4 7 7 12 6 12 -7 1 -13 -10 -17
-10 -21 0 -4 11 -6 10 -6 0 -1 -7 -5 -11 -10 -8 -4 3 -6 -6 -3 -20 2 -14 7
-22 11 -17 8 11 31 15 31 5 0 -5 23 -8 50 -8 28 1 50 -2 50 -7 0 -5 7 -4 15 3
12 10 15 10 15 -1 0 -9 3 -10 8 -4 8 12 172 12 191 1 7 -5 10 -14 7 -22 -3 -8
-2 -14 2 -14 4 0 8 -8 9 -17 3 -44 8 -63 16 -63 4 0 5 -5 2 -10 -4 -6 -1 -18
7 -27 9 -12 9 -15 1 -9 -7 4 -13 2 -13 -3 0 -6 3 -11 8 -11 11 0 12 -73 0 -87
-9 -11 -14 -11 -26 -1 -13 10 -14 10 -8 1 4 -8 1 -13 -8 -13 -10 0 -13 -6 -9
-16 3 -8 12 -13 19 -10 8 3 14 2 14 -2 0 -10 300 -8 321 2 11 5 15 15 12 27
-5 16 -8 18 -14 7 -6 -8 -12 -9 -16 -3 -5 6 -19 11 -32 13 -30 3 -55 33 -38
44 9 6 8 8 -1 8 -7 0 -10 5 -7 10 3 6 2 10 -4 10 -5 0 -10 8 -10 18 0 34 -6
67 -12 72 -10 7 -15 63 -7 75 3 6 38 10 76 10 39 0 68 4 64 9 -3 5 5 7 16 4
14 -4 20 -2 15 5 -4 6 2 8 15 5 13 -4 20 -2 16 4 -3 5 3 12 15 15 11 3 18 9
15 14 -5 8 9 13 28 10 4 0 5 6 2 14 -4 8 1 17 10 21 9 3 16 15 16 25 0 10 4
19 9 19 5 0 8 8 7 18 -2 9 2 20 8 24 7 5 7 8 -3 8 -10 0 -11 3 -2 13 8 11 6
18 -9 32 -15 13 -17 22 -10 36 7 12 7 20 0 24 -8 5 -7 11 1 21 9 11 9 14 0 14
-8 0 -10 8 -6 20 4 12 2 20 -5 20 -6 0 -9 4 -6 9 14 22 -81 141 -111 141 -5 0
-22 4 -38 9 -17 4 -41 7 -55 6 -14 -1 -28 3 -32 9 -6 8 -8 8 -8 0 0 -7 -14
-11 -35 -8 -22 2 -35 -1 -35 -9 0 -8 -3 -8 -12 1 -7 7 -17 8 -28 2 -14 -8 -19
-5 -24 13 -5 19 -8 20 -17 7 -8 -12 -12 -12 -16 -2 -4 10 -10 9 -26 -5 -14
-12 -18 -13 -12 -3 7 13 6 13 -7 2 -13 -10 -17 -10 -22 4 -6 16 -8 15 -22 -2
-9 -10 -13 -12 -9 -4 4 8 -1 6 -9 -4 -9 -11 -16 -16 -16 -12 0 5 -6 3 -13 -3
-8 -6 -17 -8 -20 -4 -4 3 -7 1 -7 -6 0 -6 -12 -17 -27 -23 -24 -9 -25 -12 -9
-16 15 -3 16 -6 5 -13 -11 -7 -11 -9 -1 -9 29 0 37 -26 37 -113 -1 -74 2 -91
17 -101 10 -7 15 -15 12 -19 -3 -3 -2 -12 2 -19 9 -13 14 -33 16 -55 1 -7 6
-13 12 -13 6 0 4 -5 -4 -10 -12 -7 -12 -10 -1 -10 7 0 11 -6 7 -15 -3 -8 3
-19 12 -25 14 -8 12 -9 -11 -6 -48 8 -67 17 -67 32 0 8 -4 14 -8 14 -12 0 -42
56 -34 65 4 5 2 5 -5 1 -7 -3 -14 2 -18 14 -3 11 -11 20 -16 20 -6 0 -8 4 -5
8 3 5 -8 16 -25 26 -25 15 -28 20 -18 38 6 11 7 18 2 15 -4 -3 -13 6 -20 19
-6 14 -7 21 -1 18 6 -4 2 5 -7 20 -10 15 -15 29 -11 33 3 3 1 12 -5 20 -6 7
-8 13 -5 13 4 0 0 7 -9 16 -9 10 -14 25 -12 35 3 11 0 19 -6 19 -6 0 -8 3 -4
6 3 4 0 13 -8 20 -7 8 -11 23 -8 34 3 13 0 20 -8 20 -11 0 -11 2 1 10 8 5 10
10 4 10 -16 0 -34 45 -23 59 5 6 6 9 3 6 -4 -3 -13 0 -21 6 -10 9 -10 15 -2
25 9 11 8 15 -4 20 -9 3 -14 15 -12 29 1 14 -1 22 -5 20 -5 -3 -11 2 -14 11
-3 8 -2 12 4 9 6 -3 10 -1 10 4 0 6 -4 11 -9 11 -5 0 -12 7 -15 16 -4 10 -2
13 7 8 6 -4 3 2 -7 14 -11 12 -15 22 -10 22 5 0 1 5 -9 11 -9 5 -22 7 -28 4
-5 -4 -17 -1 -25 6 -12 10 -13 9 -8 -7z m-96 -184 c0 -5 -5 -10 -11 -10 -5 0
-7 5 -4 10 3 6 8 10 11 10 2 0 4 -4 4 -10z m-28 -67 c-6 -2 -10 -9 -6 -14 3
-5 0 -9 -5 -9 -12 0 -14 13 -4 23 3 4 11 7 17 6 6 0 5 -3 -2 -6z m100 -98 c2
-11 7 -26 12 -33 4 -7 5 -16 2 -19 -3 -3 -1 -12 5 -20 6 -7 8 -13 4 -13 -4 0
-2 -6 4 -14 10 -12 8 -14 -13 -12 -15 2 -26 -1 -26 -6 0 -5 -7 -5 -17 0 -10 5
-23 7 -30 5 -22 -8 -24 17 -4 58 11 23 18 46 15 50 -3 5 0 9 5 9 6 0 10 3 10
8 -1 4 -1 14 0 22 1 12 3 12 16 0 8 -8 16 -24 17 -35z m-142 -16 c-6 -10 -13
-19 -16 -19 -2 0 0 8 5 19 6 10 7 22 3 26 -4 5 -1 5 6 1 9 -5 9 -12 2 -27z
m-17 -49 c-3 -12 -8 -19 -11 -16 -5 6 5 36 12 36 2 0 2 -9 -1 -20z m851 0 c9
7 20 4 38 -13 31 -27 77 -94 57 -82 -12 8 -12 6 0 -8 7 -9 11 -23 8 -32 -4 -8
-2 -17 4 -21 6 -3 8 -12 5 -19 -2 -7 2 -22 9 -33 8 -10 11 -22 8 -26 -3 -3 -1
-6 7 -6 10 0 10 -3 1 -14 -9 -11 -9 -16 0 -21 8 -6 7 -10 -2 -16 -12 -7 -12
-9 0 -9 11 0 11 -3 1 -15 -9 -11 -9 -15 -1 -15 8 0 8 -4 -1 -14 -7 -8 -16 -12
-20 -9 -4 2 -6 -2 -3 -9 3 -7 -6 -18 -19 -24 -20 -9 -30 -8 -53 6 -32 19 -50
39 -55 60 -2 8 -6 17 -10 20 -3 3 -8 19 -10 35 -2 17 -11 39 -21 50 -13 14
-17 33 -15 75 1 30 -1 61 -5 68 -5 7 -3 12 3 12 6 0 9 4 5 9 -3 5 -1 12 5 16
6 4 8 11 5 16 -6 8 8 13 28 10 4 0 7 5 8 12 0 9 2 9 6 -1 3 -9 9 -10 17 -2z"/>
<path d="M3810 1942 c0 -7 -15 -10 -40 -7 -23 2 -40 0 -40 -6 0 -6 -4 -8 -9
-5 -5 4 -22 1 -38 -6 -15 -6 -32 -10 -36 -9 -4 1 -15 -6 -24 -15 -15 -15 -18
-15 -29 0 -7 11 -31 18 -69 20 -31 3 -59 7 -62 10 -3 2 -16 1 -30 -5 -16 -6
-22 -6 -18 1 4 6 -2 7 -17 2 -13 -5 -46 -8 -75 -8 -28 1 -49 -2 -46 -6 2 -5
-1 -8 -7 -8 -6 0 -8 -6 -4 -12 4 -7 -2 -5 -14 6 -11 10 -32 19 -46 20 -14 0
-26 6 -26 11 0 6 -3 6 -8 0 -9 -13 -75 -13 -84 -1 -4 6 -12 5 -21 -3 -11 -8
-17 -9 -22 -1 -4 7 -11 7 -18 2 -7 -5 -33 -8 -58 -8 -43 1 -46 -1 -43 -21 3
-13 0 -23 -5 -23 -4 0 -8 8 -8 18 0 41 -2 43 -57 41 -29 -1 -58 1 -65 5 -6 4
-11 3 -11 -3 0 -5 -11 -8 -25 -6 -14 1 -25 -1 -25 -4 0 -4 -17 -8 -37 -9 -21
-2 -42 -8 -48 -13 -7 -7 -7 -9 0 -7 6 2 11 -1 12 -6 2 -15 32 -28 45 -20 7 4
8 3 4 -4 -4 -7 -1 -12 6 -12 9 0 9 -3 -2 -10 -10 -6 -11 -10 -3 -10 8 0 11 -9
9 -22 -2 -13 1 -29 6 -35 6 -8 6 -13 1 -13 -5 0 -9 -11 -9 -25 0 -14 4 -25 9
-25 4 0 5 -6 1 -12 -14 -22 -11 -46 8 -59 10 -8 18 -26 18 -41 0 -15 4 -28 9
-28 13 0 8 -24 -9 -46 -14 -17 -14 -18 3 -5 9 7 17 9 17 4 0 -6 -8 -19 -17
-29 -16 -18 -29 -21 -50 -14 -5 1 -11 2 -14 2 -4 -1 -17 10 -29 23 -13 14 -20
25 -16 25 4 0 0 7 -9 16 -9 9 -14 23 -11 30 3 8 1 14 -5 14 -6 0 -7 5 -4 10 3
6 1 10 -5 10 -6 0 -8 5 -5 10 3 6 0 13 -9 16 -8 3 -12 12 -9 20 3 8 -1 14 -8
14 -11 0 -11 3 1 10 12 8 12 10 1 10 -11 0 -11 3 0 16 10 13 10 17 0 24 -11 6
-11 9 0 13 12 5 12 6 0 6 -11 1 -11 4 0 17 10 13 10 17 0 24 -11 6 -11 9 0 13
12 5 12 6 0 6 -11 1 -11 4 0 17 10 13 10 17 0 24 -8 5 -10 13 -5 21 4 7 9 23
10 35 2 20 -2 22 -51 22 -29 0 -58 3 -64 6 -6 4 -11 3 -11 -3 0 -5 -8 -8 -17
-6 -10 1 -24 -2 -30 -8 -9 -6 -13 -5 -13 4 0 9 -3 10 -8 3 -11 -16 -40 -24
-45 -11 -2 6 -6 4 -10 -5 -6 -16 24 -60 40 -59 12 1 11 -22 -1 -38 -8 -11 -8
-13 0 -8 7 4 15 0 18 -9 3 -8 2 -13 -3 -9 -5 3 -8 -14 -6 -37 2 -24 -2 -49 -8
-57 -10 -12 -9 -13 2 -6 11 6 13 3 9 -13 -4 -14 -1 -25 9 -31 9 -4 16 -22 17
-39 0 -16 4 -28 7 -26 4 2 10 -3 13 -12 4 -10 2 -13 -7 -8 -9 6 -9 5 0 -8 7
-8 9 -19 5 -23 -4 -5 -1 -5 6 -1 8 5 12 1 12 -12 0 -10 9 -29 20 -42 11 -12
17 -27 14 -32 -3 -4 -2 -8 3 -7 15 4 63 -13 58 -21 -2 -4 7 -6 20 -4 14 1 25
-1 25 -5 0 -11 174 -9 182 3 4 6 13 4 24 -5 16 -12 17 -12 9 1 -5 9 1 7 15 -5
22 -19 23 -19 16 -1 -5 16 -4 17 9 6 8 -7 15 -9 15 -6 0 4 9 2 20 -4 15 -8 20
-8 20 2 0 9 3 9 10 -2 8 -13 10 -13 10 -1 0 12 3 12 12 3 9 -9 15 -8 27 2 9 8
27 16 41 18 14 2 30 6 35 9 6 4 18 5 28 3 11 -1 16 0 13 3 -3 4 -1 12 6 20 9
11 7 12 -7 7 -13 -5 -16 -4 -11 4 6 11 -26 18 -56 13 -5 0 -8 4 -8 9 0 6 -7
10 -15 10 -8 0 -12 6 -9 14 3 8 1 17 -5 20 -6 4 -8 13 -4 21 3 8 0 15 -7 15
-6 0 -9 4 -5 9 3 5 1 12 -4 16 -6 3 -8 11 -5 18 2 7 -4 22 -16 32 -21 19 -28
41 -8 29 8 -5 8 -3 2 7 -13 20 -13 113 0 121 7 5 7 8 1 8 -19 0 -15 50 5 70
19 19 25 17 20 -5 -1 -5 2 -7 5 -3 12 12 47 -12 41 -28 -3 -8 -2 -13 3 -10 9
6 21 -15 28 -48 2 -11 8 -25 14 -32 6 -7 8 -18 4 -24 -3 -5 -1 -10 5 -10 6 0
8 -4 5 -10 -3 -5 -1 -10 4 -10 6 0 11 -9 11 -21 0 -13 8 -23 21 -26 11 -3 18
-11 15 -18 -2 -7 6 -18 20 -25 24 -13 35 -37 12 -25 -7 4 -4 -1 6 -9 11 -9 16
-16 11 -16 -5 0 -1 -6 10 -13 10 -8 15 -19 11 -26 -5 -7 -2 -10 5 -9 7 2 13
-3 14 -10 0 -7 5 -16 10 -20 10 -7 17 -27 18 -49 0 -7 4 -13 9 -13 5 0 5 -8 0
-17 -5 -10 -8 -29 -6 -42 3 -17 0 -22 -10 -18 -11 5 -13 0 -6 -24 7 -22 5 -31
-8 -39 -9 -5 -13 -10 -8 -10 6 0 1 -7 -10 -16 -10 -8 -13 -12 -5 -8 9 5 12 3
7 -5 -4 -6 -11 -9 -16 -6 -5 3 -11 1 -15 -5 -3 -6 -16 -8 -28 -6 -13 2 -30 -5
-42 -17 -11 -11 -14 -16 -6 -12 11 6 13 3 9 -13 -4 -12 -2 -22 4 -22 5 0 7 -4
4 -9 -10 -16 58 -35 119 -33 69 3 98 10 90 22 -3 5 4 14 16 20 20 11 20 12 2
25 -17 13 -17 14 -1 20 10 4 15 11 12 16 -3 5 1 9 8 9 9 0 9 3 -2 10 -10 6
-11 10 -2 10 6 0 11 3 11 8 -4 26 3 62 11 57 5 -3 7 0 4 8 -3 8 -1 18 5 22 8
4 8 12 0 27 -9 16 -8 19 2 13 8 -6 11 -4 6 7 -3 9 0 21 6 27 8 8 7 11 -3 11
-12 1 -12 2 1 10 10 6 15 21 14 40 -1 16 2 30 6 30 5 0 5 7 2 17 -4 10 -2 14
4 10 5 -3 10 0 10 7 0 9 -7 12 -16 8 -14 -5 -14 -4 -1 10 8 9 20 13 25 10 6
-3 4 1 -3 10 -8 10 -9 19 -3 22 9 6 7 43 -4 54 -2 3 0 11 6 19 6 7 8 13 5 13
-4 0 0 7 8 16 9 8 14 19 11 24 -3 4 2 11 11 14 8 3 13 10 10 15 -4 5 -1 15 6
23 7 7 14 20 16 28 6 25 49 62 58 49 4 -6 0 -16 -10 -21 -9 -5 -13 -14 -10
-20 5 -7 2 -9 -8 -6 -8 4 -15 1 -15 -7 0 -8 7 -11 16 -7 13 5 14 3 3 -10 -10
-13 -10 -17 3 -22 11 -4 14 -2 9 7 -6 9 -5 9 7 0 12 -10 18 -10 27 -1 8 8 12
8 12 2 0 -12 61 -11 97 1 12 4 29 18 39 32 9 14 12 23 6 19 -6 -3 -5 4 1 19
14 30 18 30 43 8 27 -24 35 -159 9 -149 -9 3 -13 2 -10 -4 10 -15 -30 -31 -45
-17 -10 9 -11 9 -6 -1 5 -8 -3 -14 -24 -18 -17 -4 -28 -9 -25 -12 10 -11 -40
-29 -53 -19 -9 7 -11 6 -6 -7 6 -14 -5 -21 -29 -17 -4 0 -6 -2 -6 -7 3 -19 -2
-33 -11 -27 -5 3 -10 1 -10 -4 0 -6 4 -11 9 -11 5 0 9 -12 9 -27 0 -15 5 -29
11 -31 6 -2 9 -8 6 -12 -3 -5 4 -15 16 -24 12 -8 18 -19 15 -24 -3 -6 2 -9 11
-8 10 2 21 -1 25 -7 3 -6 17 -11 30 -13 12 -1 23 -3 23 -4 0 -9 116 -5 137 5
23 11 26 11 21 -4 -4 -14 -3 -14 9 -1 14 17 48 15 60 -4 6 -8 8 -7 8 2 0 8 5
10 13 5 16 -10 137 -11 137 -1 0 4 6 5 13 3 6 -2 25 6 41 19 l29 24 -23 12
c-12 6 -24 9 -27 6 -3 -3 -12 2 -20 12 -8 9 -12 12 -9 5 12 -24 -13 -23 -40 2
-15 14 -23 25 -18 25 5 0 1 5 -9 11 -10 6 -14 15 -10 22 12 19 12 38 1 30 -7
-4 -9 2 -6 15 4 14 2 20 -4 16 -6 -4 -9 -1 -6 7 2 7 -5 22 -16 32 -12 10 -15
16 -8 12 6 -3 12 -1 12 4 0 6 -4 11 -9 11 -11 0 -9 19 4 39 5 10 4 16 -4 19
-9 3 -9 7 0 18 9 11 9 17 0 28 -9 10 -9 16 -1 21 8 5 8 11 -1 21 -6 8 -8 14
-4 14 4 0 1 8 -6 17 -12 14 -12 16 0 8 11 -6 13 -4 8 9 -4 10 -7 20 -7 22 0 2
-5 4 -11 4 -7 0 -18 8 -25 18 -7 9 -17 18 -23 18 -6 1 -18 2 -27 3 -8 0 -12 6
-9 12 4 6 -2 5 -13 -2 -17 -10 -23 -10 -36 0 -10 9 -16 9 -16 3z m-486 -82 c4
0 4 5 0 12 -4 7 -3 8 5 4 6 -4 9 -12 6 -17 -4 -5 -1 -9 6 -9 9 0 9 -4 -1 -15
-6 -8 -9 -19 -5 -25 3 -5 1 -10 -6 -10 -7 0 -9 -8 -6 -21 3 -12 0 -22 -9 -26
-8 -3 -11 -9 -8 -14 3 -5 0 -9 -5 -9 -6 0 -11 -9 -11 -20 0 -11 -4 -20 -9 -20
-6 0 -8 -9 -6 -21 3 -17 2 -19 -10 -9 -7 6 -12 20 -10 31 2 10 -2 25 -9 32 -7
7 -12 20 -10 29 1 9 -5 19 -13 22 -12 5 -13 9 -4 20 8 10 8 15 1 18 -5 1 -12
13 -15 25 -3 18 2 24 23 30 15 4 30 7 34 8 3 0 10 3 14 8 4 4 15 0 24 -8 9 -8
20 -15 24 -15z m242 -7 c-10 -10 -19 5 -10 18 6 11 8 11 12 0 2 -7 1 -15 -2
-18z m-196 -113 c0 -5 -5 -10 -11 -10 -5 0 -7 5 -4 10 3 6 8 10 11 10 2 0 4
-4 4 -10z m-27 -53 c-4 -7 -7 -22 -8 -34 0 -12 -4 -25 -10 -30 -6 -4 -7 -4 -3
1 4 5 2 16 -5 24 -10 13 -9 14 2 7 11 -6 13 -4 8 8 -3 9 -2 19 4 22 5 4 6 11
3 17 -4 7 -2 8 5 4 6 -4 8 -13 4 -19z m7 -81 c0 -3 -4 -8 -10 -11 -5 -3 -10
-1 -10 4 0 6 5 11 10 11 6 0 10 -2 10 -4z m451 -10 c-10 -12 -9 -14 6 -10 16
4 19 -1 21 -32 2 -21 4 -40 6 -43 6 -9 -17 -26 -34 -26 -8 0 -14 8 -14 17 1
10 -1 16 -5 15 -3 -1 -8 3 -9 8 -2 6 -8 15 -13 22 -7 7 -6 14 1 18 6 3 7 11 4
17 -4 6 -2 8 3 5 6 -4 16 0 23 8 7 8 15 15 17 15 3 0 0 -6 -6 -14z m-514 -183
c-4 -3 -1 -13 6 -21 10 -13 9 -14 -2 -8 -10 7 -12 3 -6 -13 4 -13 2 -21 -6
-21 -9 0 -9 -3 0 -14 8 -10 9 -16 1 -21 -6 -3 -8 -10 -5 -15 3 -5 1 -11 -5
-15 -6 -4 -7 -11 -4 -17 4 -6 3 -8 -3 -5 -11 7 -11 52 0 63 4 4 2 13 -5 21 -9
11 -8 13 2 11 9 -2 14 8 15 27 3 35 3 35 12 35 3 0 3 -3 0 -7z"/>
</g>
</svg>
